<svg width="18" height="18" viewBox="0 0 18 18" fill="none" xmlns="http://www.w3.org/2000/svg">
<path d="M2.79069 8.11606C2.54659 7.87197 2.54659 7.47622 2.79069 7.23216L6.45003 3.57281C6.69413 3.32878 7.08984 3.32872 7.33391 3.57281L9.63478 5.87369L13.2585 2.25H11.653C11.3078 2.25 11.028 1.97019 11.028 1.625C11.028 1.27981 11.3078 1 11.653 1H14.767C15.1178 0.999813 15.3923 1.28659 15.3923 1.625V4.73938C15.3923 5.08456 15.1125 5.36438 14.7673 5.36438C14.4222 5.36438 14.1423 5.08456 14.1423 4.73938V3.13391L10.0767 7.19953C9.83262 7.44362 9.43691 7.44362 9.19284 7.19953L6.89197 4.89866L3.67456 8.11606C3.4305 8.36016 3.03472 8.36009 2.79069 8.11606ZM5.46528 12.6875V16.375C5.46528 16.7202 5.18547 17 4.84028 17H1.625C1.27981 17 1 16.7202 1 16.375V12.6875C1 12.3423 1.27981 12.0625 1.625 12.0625H4.84028C5.18547 12.0625 5.46528 12.3423 5.46528 12.6875ZM4.21528 13.3125H2.25V15.75H4.21528V13.3125ZM11.2326 10.3102V16.375C11.2326 16.7202 10.9528 17 10.6076 17H7.39237C7.04719 17 6.76737 16.7202 6.76737 16.375V10.3102C6.76737 9.965 7.04719 9.68519 7.39237 9.68519H10.6077C10.9528 9.68519 11.2326 9.965 11.2326 10.3102ZM9.98263 10.9352H8.01734V15.75H9.98263V10.9352ZM17 7.93291V16.375C17 16.7202 16.7202 17 16.375 17H13.1597C12.8145 17 12.5347 16.7202 12.5347 16.375V7.93291C12.5347 7.58772 12.8145 7.30791 13.1597 7.30791H16.375C16.7202 7.30791 17 7.58772 17 7.93291ZM15.75 8.55791H13.7847V15.75H15.75V8.55791Z" fill="white" stroke="#4B1B97" stroke-width="0.3"/>
</svg>
