<svg width="18" height="18" viewBox="0 0 18 18" fill="none" xmlns="http://www.w3.org/2000/svg">
<path d="M5.18751 16.4622L5.18746 16.4623L5.19469 16.4662C6.49626 17.1844 7.95037 17.54 9.54792 17.54C10.794 17.54 11.9775 17.3061 13.0948 16.8368C14.2187 16.3648 15.1767 15.6662 15.9641 14.7437L16.2025 14.4646L15.9448 14.2032L13.7048 11.9312L13.4033 11.6254L13.1196 11.9478C12.6928 12.4328 12.1688 12.8026 11.5414 13.0574L11.5414 13.0574L11.5372 13.0591C10.9296 13.3139 10.2575 13.444 9.51592 13.444C8.65761 13.444 7.91587 13.2652 7.27952 12.9191C6.64348 12.5519 6.15383 12.0429 5.80544 11.3849C5.71558 11.2151 5.63687 11.0376 5.56953 10.852H16.4919H16.8198L16.8842 10.5305C16.9493 10.2049 16.9941 9.90604 17.0174 9.63511C17.0615 9.34439 17.0839 9.0619 17.0839 8.78801C17.0839 7.2572 16.7508 5.87778 16.075 4.66027C15.4228 3.44693 14.5091 2.4877 13.3382 1.78931C12.1805 1.086 10.8487 0.740015 9.35592 0.740015C7.81703 0.740015 6.40336 1.10887 5.12351 1.84984L5.1235 1.84983L5.12085 1.8514C3.86649 2.59058 2.86846 3.60014 2.13053 4.87426C1.38749 6.13574 1.01992 7.56127 1.01992 9.14001C1.01992 10.7194 1.38775 12.1548 2.12975 13.4364L2.12972 13.4364L2.13239 13.4409C2.89234 14.715 3.91208 15.7238 5.18751 16.4622ZM12.706 7.17201H5.58879C5.64338 7.03093 5.70489 6.89619 5.77317 6.76768L5.7732 6.76769L5.77551 6.7632C6.10451 6.12456 6.56393 5.63816 7.15678 5.29393C7.74734 4.95102 8.45425 4.77201 9.29192 4.77201C10.0929 4.77201 10.7325 4.93214 11.232 5.22813L11.232 5.22817L11.2375 5.23131C11.7634 5.53184 12.168 5.96254 12.4542 6.5349C12.5515 6.72955 12.6356 6.94173 12.706 7.17201Z" stroke="white" stroke-width="0.8"/>
</svg>
