<svg width="30" height="34" viewBox="0 0 30 34" fill="none" xmlns="http://www.w3.org/2000/svg">
<path d="M20.273 9.57342C22.4279 9.8039 24.5957 9.89228 26.7622 9.83798L26.757 9.82957C24.1984 5.96689 20.8944 2.65387 17.0387 0.0847168C16.9828 2.26203 17.0712 4.44066 17.3033 6.6063C17.4689 8.03714 18.8415 9.40976 20.273 9.57342Z" fill="white"/>
<path d="M23.4072 19.9335C22.1033 19.9335 20.8286 20.3201 19.7445 21.0445C18.6603 21.769 17.8153 22.7986 17.3163 24.0033C16.8173 25.2079 16.6868 26.5335 16.9411 27.8124C17.1955 29.0912 17.8234 30.266 18.7454 31.188C19.6674 32.11 20.8421 32.7379 22.121 32.9923C23.3999 33.2466 24.7255 33.1161 25.9301 32.6171C27.1348 32.1181 28.1644 31.2731 28.8888 30.1889C29.6133 29.1048 29.9999 27.8301 29.9999 26.5262C29.9999 24.7777 29.3053 23.1008 28.069 21.8644C26.8326 20.6281 25.1557 19.9335 23.4072 19.9335ZM26.5638 26.402C26.4797 26.4861 26.3799 26.5528 26.27 26.5983C26.1601 26.6439 26.0424 26.6673 25.9235 26.6673C25.8045 26.6673 25.6868 26.6439 25.5769 26.5983C25.467 26.5528 25.3672 26.4861 25.2831 26.402L24.3128 25.4317V29.7999C24.3128 30.0401 24.2174 30.2705 24.0475 30.4403C23.8777 30.6101 23.6474 30.7055 23.4072 30.7055C23.167 30.7055 22.9367 30.6101 22.7668 30.4403C22.597 30.2705 22.5016 30.0401 22.5016 29.7999V25.435L21.5313 26.4052C21.3615 26.5751 21.1311 26.6705 20.8909 26.6705C20.6507 26.6705 20.4204 26.5751 20.2505 26.4052C20.0807 26.2354 19.9853 26.005 19.9853 25.7649C19.9853 25.5247 20.0807 25.2943 20.2505 25.1245L22.7668 22.6089C22.8509 22.5248 22.9507 22.458 23.0606 22.4125C23.1705 22.367 23.2883 22.3436 23.4072 22.3436C23.5261 22.3436 23.6439 22.367 23.7538 22.4125C23.8636 22.458 23.9635 22.5248 24.0476 22.6089L26.5638 25.1245C26.6479 25.2086 26.7147 25.3084 26.7602 25.4183C26.8057 25.5282 26.8291 25.6459 26.8291 25.7649C26.8291 25.8838 26.8057 26.0016 26.7602 26.1114C26.7147 26.2213 26.6479 26.3211 26.5638 26.4052V26.402Z" fill="white"/>
<path d="M26.8226 11.5684C26.3918 11.5794 25.9616 11.5865 25.5334 11.5865C23.7147 11.5859 21.8973 11.489 20.0889 11.2961H20.0733C18.995 11.1712 17.9387 10.6363 17.09 9.79018C16.2414 8.94409 15.7097 7.88519 15.5842 6.80754C15.5845 6.80237 15.5845 6.79718 15.5842 6.79201C15.3439 4.54406 15.2523 2.2827 15.3099 0.0226854C11.911 -0.059238 8.51037 0.0807801 5.12971 0.441847C2.87155 0.703823 0.706526 2.86949 0.443903 5.12766C-0.147968 10.668 -0.147968 20.9555 0.443903 26.4958C0.705879 28.754 2.87155 30.9197 5.12971 31.1816C8.96349 31.592 12.8224 31.7177 16.6748 31.5575C15.8587 30.4632 15.3205 29.1872 15.1065 27.8391C14.8924 26.491 15.0088 25.111 15.4457 23.8179H6.42083C6.18065 23.8179 5.95031 23.7224 5.78048 23.5526C5.61065 23.3828 5.51524 23.1524 5.51524 22.9123C5.51524 22.6721 5.61065 22.4417 5.78048 22.2719C5.95031 22.1021 6.18065 22.0067 6.42083 22.0067H16.3177C17.037 20.8848 18.0099 19.9477 19.158 19.2711H6.42083C6.18065 19.2711 5.95031 19.1757 5.78048 19.0059C5.61065 18.836 5.51524 18.6057 5.51524 18.3655C5.51524 18.1253 5.61065 17.895 5.78048 17.7252C5.95031 17.5553 6.18065 17.4599 6.42083 17.4599H20.4576C20.6977 17.4599 20.9281 17.5553 21.0979 17.7252C21.2677 17.895 21.3632 18.1253 21.3632 18.3655V18.3707C23.1946 17.9172 25.125 18.088 26.8485 18.8558C26.8983 16.4502 26.8892 13.9268 26.8226 11.5684ZM15.9322 14.725H6.42342C6.18324 14.725 5.9529 14.6296 5.78307 14.4598C5.61324 14.29 5.51783 14.0596 5.51783 13.8194C5.51783 13.5793 5.61324 13.3489 5.78307 13.1791C5.9529 13.0092 6.18324 12.9138 6.42342 12.9138H15.9322C16.1724 12.9138 16.4027 13.0092 16.5725 13.1791C16.7424 13.3489 16.8378 13.5793 16.8378 13.8194C16.8378 14.0596 16.7424 14.29 16.5725 14.4598C16.4027 14.6296 16.1724 14.725 15.9322 14.725Z" fill="white"/>
</svg>
