<svg width="16" height="16" viewBox="0 0 16 16" fill="none" xmlns="http://www.w3.org/2000/svg">
<path d="M6.85835 16C6.85796 16 6.85747 16 6.85698 16C6.3563 15.9996 5.8855 15.8043 5.53159 15.4498L0.546826 10.4579C-0.182275 9.72744 -0.182275 8.53887 0.546826 7.8085L7.26636 1.07607C7.95884 0.382227 8.88023 0 9.86069 0H14.1239C15.1577 0 15.9989 0.841016 15.9989 1.875V6.1251C15.9989 7.10488 15.617 8.02588 14.9239 8.71826L8.18345 15.4517C7.82935 15.8053 7.35874 16 6.85835 16ZM9.86069 1.25C9.2146 1.25 8.60747 1.50186 8.15112 1.95908L1.43149 8.6915C1.18843 8.93506 1.18843 9.33115 1.43149 9.57471L6.41626 14.5666C6.53413 14.6847 6.69097 14.7499 6.85796 14.75H6.85845C7.02524 14.75 7.18208 14.6851 7.30005 14.5673L14.0405 7.83398C14.4973 7.37773 14.7489 6.7707 14.7489 6.1251V1.875C14.7489 1.53037 14.4685 1.25 14.1239 1.25H9.86069ZM11.4675 6.34375C10.4336 6.34375 9.59253 5.50273 9.59253 4.46875C9.59253 3.43477 10.4336 2.59375 11.4675 2.59375C12.5014 2.59375 13.3425 3.43477 13.3425 4.46875C13.3425 5.50273 12.5014 6.34375 11.4675 6.34375ZM11.4675 3.84375C11.1229 3.84375 10.8425 4.12412 10.8425 4.46875C10.8425 4.81338 11.1229 5.09375 11.4675 5.09375C11.8123 5.09375 12.0925 4.81338 12.0925 4.46875C12.0925 4.12412 11.8123 3.84375 11.4675 3.84375Z" fill="white"/>
</svg>
