<svg width="17" height="16" viewBox="0 0 17 16" fill="none" xmlns="http://www.w3.org/2000/svg">
<path d="M12.2482 6.91876C12.6507 6.64683 12.9393 6.24117 13.0665 5.76245C13.2056 5.23917 13.135 4.69407 12.8679 4.22755C12.6007 3.76102 12.1678 3.42688 11.6488 3.28664C11.174 3.15838 10.6812 3.20751 10.2464 3.42295L9.12616 1.4666C8.88769 1.05012 8.45934 0.807379 7.98377 0.815556C7.50692 0.82436 7.08901 1.08329 6.86571 1.50821C6.70893 1.80674 6.56167 2.11685 6.40577 2.44519C5.77038 3.78337 5.05022 5.30011 3.49331 6.20639L1.49275 7.37091C0.804119 7.77176 0.310855 8.42158 0.103777 9.20068C-0.103267 9.97979 0.00164487 10.7912 0.399219 11.4855C0.951937 12.4507 1.95822 12.991 2.99154 12.991C3.36842 12.991 3.74886 12.919 4.11225 12.7697L5.51081 15.212C5.80017 15.7173 6.32682 16 6.86774 16C7.13283 16 7.40139 15.932 7.64702 15.7891C8.00764 15.5791 8.26593 15.239 8.37428 14.8314C8.48259 14.4237 8.42762 13.9989 8.2194 13.6353L6.84324 11.2321C8.2921 10.5377 9.8129 10.6555 11.1669 10.761C11.5272 10.7891 11.8675 10.8156 12.2026 10.828C12.6785 10.8452 13.1106 10.6101 13.3565 10.1981C13.6025 9.78608 13.607 9.29152 13.3685 8.87505L12.2482 6.91866L12.2482 6.91876ZM11.4372 4.08286C11.7452 4.16609 12.0019 4.36382 12.1599 4.6397C12.4648 5.17224 12.317 5.84488 11.838 6.20237L10.6567 4.13938C10.9012 4.03232 11.1736 4.01164 11.4372 4.08286H11.4372ZM2.9902 12.1669C2.23973 12.1668 1.50874 11.7744 1.10731 11.0734C0.818933 10.5698 0.742996 9.98048 0.893562 9.41405C1.0441 8.84761 1.4021 8.37555 1.90158 8.0848L3.54829 7.12625L5.72024 10.9145L4.07154 11.8742C3.73064 12.0726 3.35815 12.1669 2.9902 12.1669ZM7.58459 14.6181C7.53279 14.8131 7.40976 14.9754 7.23827 15.0753C6.88193 15.2827 6.42464 15.1592 6.21887 14.7999L4.83431 12.382L6.12681 11.6296L7.51137 14.0475C7.6104 14.2204 7.63639 14.4231 7.58456 14.6181H7.58459ZM12.6561 9.77302C12.5631 9.92878 12.4132 10.0113 12.2325 10.0043C11.914 9.99252 11.5818 9.9666 11.23 9.9392C9.75236 9.82409 8.09097 9.69501 6.43533 10.5146L4.24931 6.70183C5.78297 5.66492 6.50309 4.1493 7.14323 2.80116C7.29543 2.48057 7.43923 2.17775 7.58822 1.89405C7.67263 1.73338 7.81842 1.64307 7.99871 1.63977C8.00212 1.6397 8.00552 1.63967 8.00892 1.63967C8.1846 1.63967 8.32967 1.72431 8.41814 1.87879L12.6605 9.28733C12.7507 9.44478 12.7492 9.61729 12.6561 9.77305L12.6561 9.77302ZM11.5942 1.68042L12.4384 0.206159C12.5513 0.00901688 12.8013 -0.0585437 12.9968 0.0553102C13.1923 0.169131 13.2593 0.421206 13.1464 0.618315L12.3022 2.09258C12.2265 2.2248 12.0891 2.29872 11.9478 2.29872C11.8784 2.29872 11.8082 2.28092 11.7438 2.24343C11.5483 2.12961 11.4813 1.87753 11.5942 1.68042ZM15.3895 3.2356L13.8919 4.10739C13.8275 4.14485 13.7572 4.16269 13.6879 4.16269C13.5466 4.16269 13.4092 4.08877 13.3335 3.95655C13.2206 3.7594 13.2876 3.50733 13.4831 3.39354L14.9807 2.52175C15.1762 2.40789 15.4262 2.47549 15.5391 2.6726C15.652 2.86971 15.585 3.12181 15.3895 3.2356ZM16.5161 6.20108C16.5161 6.42869 16.3331 6.61324 16.1073 6.61324H14.4189C14.1931 6.61324 14.0101 6.42872 14.0101 6.20108C14.0101 5.97344 14.1931 5.78892 14.4189 5.78892H16.1073C16.3331 5.78892 16.5161 5.97344 16.5161 6.20108Z" fill="white"/>
</svg>
