<svg width="9" height="11" viewBox="0 0 9 11" fill="none" xmlns="http://www.w3.org/2000/svg">
<path d="M0.700059 10L6.98606 0.199997H8.51206L2.22606 10H0.700059ZM6.65006 10.14C6.28606 10.14 5.95006 10.0513 5.64206 9.874C5.34339 9.69666 5.10539 9.45866 4.92806 9.16C4.75073 8.86133 4.66206 8.52533 4.66206 8.152C4.66206 7.77867 4.75073 7.44733 4.92806 7.158C5.10539 6.85933 5.34339 6.62133 5.64206 6.444C5.94073 6.26666 6.27673 6.178 6.65006 6.178C7.02339 6.178 7.35939 6.26666 7.65806 6.444C7.96606 6.62133 8.20873 6.85933 8.38606 7.158C8.56339 7.44733 8.65206 7.77867 8.65206 8.152C8.65206 8.52533 8.56339 8.86133 8.38606 9.16C8.20873 9.45866 7.97073 9.69666 7.67206 9.874C7.37339 10.0513 7.03273 10.14 6.65006 10.14ZM6.65006 8.95C6.88339 8.95 7.07006 8.87533 7.21006 8.726C7.35939 8.57666 7.43406 8.38533 7.43406 8.152C7.43406 7.928 7.35939 7.74133 7.21006 7.592C7.06073 7.44266 6.87406 7.368 6.65006 7.368C6.42606 7.368 6.24406 7.44266 6.10406 7.592C5.96406 7.74133 5.89406 7.928 5.89406 8.152C5.89406 8.38533 5.96406 8.57666 6.10406 8.726C6.24406 8.87533 6.42606 8.95 6.65006 8.95ZM2.54806 4.022C2.18406 4.022 1.84806 3.93333 1.54006 3.756C1.24139 3.57866 1.00339 3.34066 0.826059 3.042C0.648725 2.74333 0.560059 2.40733 0.560059 2.034C0.560059 1.66066 0.648725 1.32933 0.826059 1.04C1.00339 0.741331 1.24139 0.503331 1.54006 0.325997C1.83873 0.148664 2.17473 0.0599976 2.54806 0.0599976C2.92139 0.0599976 3.25739 0.148664 3.55606 0.325997C3.86406 0.503331 4.10673 0.741331 4.28406 1.04C4.46139 1.32933 4.55006 1.66066 4.55006 2.034C4.55006 2.40733 4.46139 2.74333 4.28406 3.042C4.10673 3.34066 3.86873 3.57866 3.57006 3.756C3.27139 3.93333 2.93073 4.022 2.54806 4.022ZM2.54806 2.832C2.78139 2.832 2.96806 2.75733 3.10806 2.608C3.24806 2.45866 3.31806 2.26733 3.31806 2.034C3.31806 1.80066 3.24339 1.614 3.09406 1.474C2.95406 1.32466 2.77206 1.25 2.54806 1.25C2.32406 1.25 2.14206 1.32466 2.00206 1.474C1.86206 1.614 1.79206 1.80066 1.79206 2.034C1.79206 2.26733 1.86206 2.45866 2.00206 2.608C2.14206 2.75733 2.32406 2.832 2.54806 2.832Z" fill="white"/>
</svg>
