<svg width="16" height="16" viewBox="0 0 16 16" fill="none" xmlns="http://www.w3.org/2000/svg">
<path d="M8.55817 7.25582C8.55817 6.94758 8.30828 6.69768 8.00003 6.69768C7.69179 6.69768 7.44189 6.94758 7.44189 7.25582V11.7209C7.44189 12.0292 7.69179 12.2791 8.00003 12.2791C8.30828 12.2791 8.55817 12.0292 8.55817 11.7209V7.25582Z" fill="white"/>
<path fill-rule="evenodd" clip-rule="evenodd" d="M8 0C3.58172 0 0 3.58172 0 8C0 12.4183 3.58172 16 8 16C12.4183 16 16 12.4183 16 8C16 3.58172 12.4183 0 8 0ZM1.11628 8C1.11628 4.19823 4.19823 1.11628 8 1.11628C11.8017 1.11628 14.8837 4.19823 14.8837 8C14.8837 11.8017 11.8017 14.8837 8 14.8837C4.19823 14.8837 1.11628 11.8017 1.11628 8Z" fill="white"/>
<path d="M8.74423 5.02325C8.74423 5.43425 8.41106 5.76744 8.00005 5.76744C7.58903 5.76744 7.25586 5.43425 7.25586 5.02325C7.25586 4.61225 7.58903 4.27907 8.00005 4.27907C8.41106 4.27907 8.74423 4.61225 8.74423 5.02325Z" fill="white"/>
</svg>
