<svg width="17" height="18" viewBox="0 0 17 18" fill="none" xmlns="http://www.w3.org/2000/svg">
<path d="M15.0527 2.89049H14.3728V2.00223C14.37 1.73823 14.2632 1.48598 14.0756 1.30027C13.8879 1.11456 13.6345 1.01039 13.3705 1.01039C13.1065 1.0104 12.8532 1.11457 12.6655 1.30029C12.4778 1.486 12.371 1.73826 12.3683 2.00226V2.89049H9.81194V2.00223C9.81194 1.73642 9.70635 1.4815 9.5184 1.29355C9.33044 1.10559 9.07552 1 8.80971 1C8.5439 1 8.28898 1.10559 8.10103 1.29355C7.91307 1.4815 7.80748 1.73642 7.80748 2.00223V2.89049H5.25113V2.00223C5.25113 1.73642 5.14554 1.4815 4.95759 1.29355C4.76963 1.10559 4.51471 1 4.2489 1C3.98309 1 3.72817 1.10559 3.54022 1.29355C3.35226 1.4815 3.24667 1.73642 3.24667 2.00223V2.89049H2.51981C2.11541 2.89245 1.72829 3.05474 1.44337 3.34175C1.15846 3.62875 0.999012 4.01705 1 4.42146V15.469C0.999012 15.8734 1.15846 16.2617 1.44337 16.5487C1.72829 16.8357 2.11541 16.998 2.51981 17H15.0527C15.4571 16.998 15.8443 16.8358 16.1292 16.5487C16.4141 16.2617 16.5736 15.8734 16.5726 15.469V4.42146C16.5736 4.01704 16.4141 3.62875 16.1292 3.34174C15.8443 3.05473 15.4571 2.89245 15.0527 2.89049ZM12.9397 2.00223C12.9415 1.88916 12.9877 1.78133 13.0683 1.702C13.1489 1.62268 13.2575 1.57822 13.3705 1.57822C13.4836 1.57823 13.5922 1.62269 13.6728 1.70202C13.7534 1.78135 13.7995 1.88918 13.8013 2.00225V2.89049H12.9397V2.00223ZM8.37891 2.00223C8.38071 1.88916 8.42689 1.78133 8.50749 1.702C8.58808 1.62268 8.69664 1.57822 8.80972 1.57822C8.92281 1.57823 9.03136 1.62269 9.11195 1.70202C9.19255 1.78135 9.23872 1.88918 9.24052 2.00225V2.89049H8.37891V2.00223ZM3.81808 2.00223C3.81988 1.88916 3.86606 1.78133 3.94666 1.702C4.02726 1.62268 4.13581 1.57822 4.2489 1.57822C4.36198 1.57823 4.47053 1.62269 4.55113 1.70202C4.63172 1.78135 4.6779 1.88918 4.67969 2.00225V2.89049H3.81808V2.00223ZM2.5198 3.46191H3.24666V4.01465C3.24777 4.1741 3.28671 4.331 3.36028 4.47247C3.43385 4.61393 3.53996 4.73591 3.66986 4.82837C3.79977 4.92083 3.94976 4.98114 4.10752 5.00433C4.26528 5.02752 4.42628 5.01293 4.5773 4.96176C4.64764 4.93601 4.70505 4.88366 4.73718 4.816C4.7693 4.74833 4.77357 4.67075 4.74906 4.59997C4.72454 4.52919 4.67321 4.47086 4.60612 4.43755C4.53903 4.40424 4.46154 4.39862 4.39034 4.42188C4.3254 4.44385 4.25617 4.45009 4.18835 4.44011C4.12052 4.43013 4.05604 4.40419 4.00018 4.36445C3.94433 4.3247 3.8987 4.27226 3.86704 4.21146C3.83539 4.15065 3.81861 4.0832 3.81809 4.01464V3.46191H7.80748V4.01465C7.80777 4.28037 7.91346 4.53512 8.10135 4.72301C8.28924 4.9109 8.54399 5.01659 8.8097 5.01688C9.05575 5.02912 9.4161 4.90771 9.31472 4.59819C9.30243 4.56274 9.28328 4.53005 9.25836 4.502C9.23344 4.47395 9.20323 4.45109 9.16947 4.43471C9.13571 4.41834 9.09906 4.40878 9.0616 4.40657C9.02414 4.40437 8.98662 4.40957 8.95117 4.42187C8.88623 4.44386 8.817 4.45012 8.74916 4.44015C8.68133 4.43017 8.61684 4.40424 8.56098 4.36449C8.50512 4.32474 8.45949 4.2723 8.42783 4.21148C8.39618 4.15066 8.37941 4.0832 8.37891 4.01464V3.46191H12.3683V4.01465C12.3694 4.1741 12.4083 4.33101 12.4819 4.47248C12.5555 4.61395 12.6616 4.73593 12.7915 4.82839C12.9214 4.92086 13.0714 4.98116 13.2292 5.00435C13.3869 5.02754 13.5479 5.01294 13.699 4.96176C13.7693 4.93601 13.8267 4.88366 13.8588 4.81599C13.8909 4.74832 13.8952 4.67075 13.8707 4.59997C13.8462 4.5292 13.7948 4.47088 13.7278 4.43757C13.6607 4.40426 13.5832 4.39863 13.512 4.42188C13.447 4.44388 13.3778 4.45015 13.31 4.44018C13.2421 4.43021 13.1776 4.40428 13.1218 4.36452C13.0659 4.32477 13.0203 4.27232 12.9886 4.2115C12.957 4.15067 12.9402 4.08321 12.9397 4.01464V3.46191H15.0527C15.3057 3.46369 15.5475 3.5657 15.7253 3.74559C15.9031 3.92547 16.0023 4.16854 16.0011 4.42146V5.85995C15.959 5.83378 15.9106 5.81937 15.8611 5.81822L1.57143 5.83314V4.42146C1.57025 4.16854 1.66943 3.92548 1.84722 3.74559C2.02501 3.56571 2.26688 3.46369 2.5198 3.46191ZM15.0527 16.4286H2.51981C2.2669 16.4268 2.02501 16.3248 1.84722 16.1449C1.66943 15.965 1.57025 15.7219 1.57143 15.469V6.40457L15.8616 6.38966C15.911 6.38842 15.9592 6.37404 16.0011 6.348V15.469C16.0023 15.7219 15.9031 15.965 15.7253 16.1449C15.5475 16.3248 15.3057 16.4268 15.0527 16.4286Z" fill="white" stroke="white" stroke-width="0.4"/>
<path d="M5.37577 7.71568H3.5323C3.49477 7.71567 3.45762 7.72306 3.42295 7.73741C3.38828 7.75177 3.35678 7.77281 3.33024 7.79934C3.30371 7.82588 3.28267 7.85738 3.26831 7.89205C3.25396 7.92672 3.24657 7.96387 3.24658 8.0014V9.66657C3.24657 9.7041 3.25396 9.74126 3.26831 9.77592C3.28267 9.81059 3.30371 9.84209 3.33024 9.86863C3.35678 9.89516 3.38828 9.9162 3.42295 9.93056C3.45762 9.94491 3.49477 9.9523 3.5323 9.95229H5.37577C5.41329 9.9523 5.45045 9.94491 5.48512 9.93056C5.51979 9.9162 5.55129 9.89516 5.57782 9.86863C5.60435 9.84209 5.6254 9.81059 5.63975 9.77592C5.65411 9.74126 5.66149 9.7041 5.66148 9.66657V8.0014C5.66149 7.96387 5.65411 7.92672 5.63975 7.89205C5.6254 7.85738 5.60435 7.82588 5.57782 7.79934C5.55129 7.77281 5.51979 7.75177 5.48512 7.73741C5.45045 7.72306 5.41329 7.71567 5.37577 7.71568ZM5.09005 9.38086H3.81801V8.28711H5.09005V9.38086Z" fill="white" stroke="white" stroke-width="0.4"/>
<path d="M9.42997 7.71568H7.5865C7.54897 7.71567 7.51182 7.72306 7.47715 7.73741C7.44248 7.75177 7.41098 7.77281 7.38444 7.79934C7.35791 7.82588 7.33687 7.85738 7.32251 7.89205C7.30816 7.92672 7.30077 7.96387 7.30078 8.0014V9.66657C7.30077 9.7041 7.30816 9.74126 7.32251 9.77592C7.33687 9.81059 7.35791 9.84209 7.38444 9.86863C7.41098 9.89516 7.44248 9.9162 7.47715 9.93056C7.51182 9.94491 7.54897 9.9523 7.5865 9.95229H9.42997C9.46749 9.9523 9.50465 9.94491 9.53932 9.93056C9.57399 9.9162 9.60549 9.89516 9.63202 9.86863C9.65855 9.84209 9.6796 9.81059 9.69395 9.77592C9.70831 9.74126 9.71569 9.7041 9.71568 9.66657V8.0014C9.71569 7.96387 9.70831 7.92672 9.69395 7.89205C9.6796 7.85738 9.65855 7.82588 9.63202 7.79934C9.60549 7.77281 9.57399 7.75177 9.53932 7.73741C9.50465 7.72306 9.46749 7.71567 9.42997 7.71568ZM9.14425 9.38086H7.87221V8.28711H9.14425V9.38086Z" fill="white" stroke="white" stroke-width="0.4"/>
<path d="M13.484 7.71568H11.6402C11.6027 7.71567 11.5655 7.72306 11.5309 7.73741C11.4962 7.75177 11.4647 7.77281 11.4382 7.79934C11.4116 7.82588 11.3906 7.85738 11.3762 7.89205C11.3619 7.92672 11.3545 7.96387 11.3545 8.0014V9.66657C11.3545 9.7041 11.3619 9.74126 11.3762 9.77592C11.3906 9.81059 11.4116 9.84209 11.4382 9.86863C11.4647 9.89516 11.4962 9.9162 11.5309 9.93056C11.5655 9.94491 11.6027 9.9523 11.6402 9.95229H13.484C13.5215 9.9523 13.5586 9.94491 13.5933 9.93056C13.628 9.9162 13.6595 9.89516 13.686 9.86863C13.7125 9.84209 13.7336 9.81059 13.7479 9.77592C13.7623 9.74126 13.7697 9.7041 13.7697 9.66657V8.0014C13.7697 7.96387 13.7623 7.92672 13.7479 7.89205C13.7336 7.85738 13.7125 7.82588 13.686 7.79934C13.6595 7.77281 13.628 7.75177 13.5933 7.73741C13.5586 7.72306 13.5215 7.71567 13.484 7.71568ZM13.1982 9.38086H11.9259V8.28711H13.1982V9.38086Z" fill="white" stroke="white" stroke-width="0.4"/>
<path d="M5.37577 11.7698H3.5323C3.49477 11.7698 3.45762 11.7772 3.42295 11.7915C3.38828 11.8059 3.35678 11.8269 3.33024 11.8535C3.30371 11.88 3.28266 11.9115 3.26831 11.9462C3.25396 11.9808 3.24657 12.018 3.24658 12.0555V13.7207C3.24657 13.7582 3.25396 13.7954 3.26831 13.83C3.28266 13.8647 3.30371 13.8962 3.33024 13.9228C3.35678 13.9493 3.38828 13.9703 3.42295 13.9847C3.45762 13.999 3.49477 14.0064 3.5323 14.0064H5.37577C5.41329 14.0064 5.45045 13.999 5.48512 13.9847C5.51979 13.9703 5.55129 13.9493 5.57782 13.9228C5.60435 13.8962 5.6254 13.8647 5.63975 13.83C5.65411 13.7954 5.66149 13.7582 5.66148 13.7207V12.0555C5.66149 12.018 5.65411 11.9808 5.63975 11.9462C5.6254 11.9115 5.60435 11.88 5.57782 11.8535C5.55129 11.8269 5.51979 11.8059 5.48512 11.7915C5.45045 11.7772 5.41329 11.7698 5.37577 11.7698ZM5.09005 13.435H3.81801V12.3412H5.09005V13.435Z" fill="white" stroke="white" stroke-width="0.4"/>
<path d="M9.42997 11.7698H7.5865C7.54897 11.7698 7.51182 11.7772 7.47715 11.7915C7.44248 11.8059 7.41098 11.8269 7.38444 11.8535C7.35791 11.88 7.33687 11.9115 7.32251 11.9462C7.30816 11.9808 7.30077 12.018 7.30078 12.0555V13.7207C7.30077 13.7582 7.30816 13.7954 7.32251 13.83C7.33687 13.8647 7.35791 13.8962 7.38444 13.9228C7.41098 13.9493 7.44248 13.9703 7.47715 13.9847C7.51182 13.999 7.54897 14.0064 7.5865 14.0064H9.42997C9.46749 14.0064 9.50465 13.999 9.53932 13.9847C9.57399 13.9703 9.60549 13.9493 9.63202 13.9228C9.65855 13.8962 9.6796 13.8647 9.69395 13.83C9.70831 13.7954 9.71569 13.7582 9.71568 13.7207V12.0555C9.71569 12.018 9.70831 11.9808 9.69395 11.9462C9.6796 11.9115 9.65855 11.88 9.63202 11.8535C9.60549 11.8269 9.57399 11.8059 9.53932 11.7915C9.50465 11.7772 9.46749 11.7698 9.42997 11.7698ZM9.14425 13.435H7.87221V12.3412H9.14425V13.435Z" fill="white" stroke="white" stroke-width="0.4"/>
<path d="M13.484 11.7698H11.6402C11.6027 11.7698 11.5655 11.7772 11.5309 11.7915C11.4962 11.8059 11.4647 11.8269 11.4382 11.8535C11.4116 11.88 11.3906 11.9115 11.3762 11.9462C11.3619 11.9808 11.3545 12.018 11.3545 12.0555V13.7207C11.3545 13.7582 11.3619 13.7954 11.3762 13.83C11.3906 13.8647 11.4116 13.8962 11.4382 13.9228C11.4647 13.9493 11.4962 13.9703 11.5309 13.9847C11.5655 13.999 11.6027 14.0064 11.6402 14.0064H13.484C13.5215 14.0064 13.5586 13.999 13.5933 13.9847C13.628 13.9703 13.6595 13.9493 13.686 13.9228C13.7125 13.8962 13.7336 13.8647 13.7479 13.83C13.7623 13.7954 13.7697 13.7582 13.7697 13.7207V12.0555C13.7697 12.018 13.7623 11.9808 13.7479 11.9462C13.7336 11.9115 13.7125 11.88 13.686 11.8535C13.6595 11.8269 13.628 11.8059 13.5933 11.7915C13.5586 11.7772 13.5215 11.7698 13.484 11.7698ZM13.1982 13.435H11.9259V12.3412H13.1982V13.435Z" fill="white" stroke="white" stroke-width="0.4"/>
</svg>
