<svg width="18" height="15" viewBox="0 0 18 15" fill="none" xmlns="http://www.w3.org/2000/svg">
<path d="M17.9375 10.631C18.0961 10.9736 17.9424 11.3775 17.5942 11.5328L9.97905 14.9387C9.88836 14.9796 9.79075 15 9.69245 15C9.62391 15 9.55538 14.9898 9.48892 14.97L0.489227 12.2453C0.123701 12.1343 -0.0812152 11.7529 0.0309348 11.3939C0.143085 11.0342 0.531456 10.8305 0.89629 10.9429L9.64537 13.592L17.021 10.2931C17.3726 10.1344 17.7804 10.2897 17.9375 10.631ZM9.64537 10.8673L0.89629 8.21825C0.531456 8.10585 0.143777 8.30953 0.0309348 8.66918C-0.0819074 9.02816 0.123701 9.40962 0.489227 9.52065L9.48892 12.2453C9.55538 12.2651 9.62391 12.2753 9.69245 12.2753C9.79075 12.2753 9.88836 12.2549 9.97905 12.214L17.5942 8.80814C17.9424 8.65215 18.0961 8.2489 17.9375 7.90627C17.7797 7.565 17.3726 7.41174 17.021 7.56841L9.64537 10.8673ZM0.00116662 6.17882C-0.0133713 5.89273 0.155546 5.62843 0.42346 5.51672L5.47782 3.42075C6.47264 3.00796 6.94616 2.49299 6.94616 0.681075C6.94616 0.471955 7.04377 0.273734 7.2113 0.144992C7.37884 0.0155695 7.5969 -0.0300691 7.8039 0.0196565L16.7614 2.19123C17.0701 2.26616 17.2882 2.53931 17.2882 2.85265V2.95619C17.2889 4.9711 17.2896 6.30143 14.7814 7.34158C13.1026 8.03774 10.0185 9.47024 9.98805 9.48523C9.89529 9.52882 9.79352 9.55062 9.69245 9.55062C9.62391 9.55062 9.55538 9.5404 9.48892 9.52065L0.489227 6.79596C0.210929 6.71149 0.0157046 6.46491 0.00116662 6.17882ZM2.7163 6.04463L9.63914 8.14128C10.409 7.78502 12.7973 6.68629 14.2428 6.08686C15.7735 5.45201 15.8939 4.96361 15.9022 3.38669L8.29403 1.5414C8.16042 2.93916 7.62183 4.00996 6.01642 4.67615L2.7163 6.04463Z" fill="white"/>
</svg>
