<svg width="20" height="20" viewBox="0 0 20 20" fill="none" xmlns="http://www.w3.org/2000/svg">
<path d="M9.99992 10.625C7.35825 10.625 5.20825 8.47501 5.20825 5.83334C5.20825 3.19167 7.35825 1.04167 9.99992 1.04167C12.6416 1.04167 14.7916 3.19167 14.7916 5.83334C14.7916 8.47501 12.6416 10.625 9.99992 10.625ZM9.99992 2.29167C8.04992 2.29167 6.45825 3.88334 6.45825 5.83334C6.45825 7.78334 8.04992 9.37501 9.99992 9.37501C11.9499 9.37501 13.5416 7.78334 13.5416 5.83334C13.5416 3.88334 11.9499 2.29167 9.99992 2.29167Z" fill="white"/>
<path d="M13.1831 18.9583C12.8664 18.9583 12.5664 18.8416 12.3497 18.6249C12.0914 18.3666 11.9747 17.9916 12.0331 17.5999L12.1914 16.4749C12.2331 16.1833 12.4081 15.8416 12.6164 15.6249L15.5664 12.6749C16.7497 11.4916 17.7914 12.1666 18.2997 12.6749C18.7331 13.1083 18.9581 13.5749 18.9581 14.0416C18.9581 14.5166 18.7414 14.9583 18.2997 15.3999L15.3496 18.3499C15.1413 18.5583 14.7914 18.7333 14.4997 18.7749L13.3746 18.9332C13.308 18.9498 13.2497 18.9583 13.1831 18.9583ZM16.9247 13.2666C16.7747 13.2666 16.6414 13.3666 16.4497 13.5583L13.4997 16.5083C13.4747 16.5333 13.4331 16.6166 13.4331 16.6499L13.2831 17.6916L14.3247 17.5416C14.3581 17.5333 14.4413 17.4916 14.4663 17.4666L17.4164 14.5166C17.5497 14.3833 17.7081 14.1916 17.7081 14.0416C17.7081 13.9166 17.6081 13.7416 17.4164 13.5583C17.2164 13.3583 17.0664 13.2666 16.9247 13.2666Z" fill="white"/>
<path d="M17.4338 16.0165C17.3755 16.0165 17.3172 16.0082 17.2672 15.9916C16.1672 15.6832 15.2922 14.8082 14.9838 13.7082C14.8922 13.3749 15.0838 13.0332 15.4172 12.9416C15.7505 12.8499 16.0922 13.0416 16.1838 13.3749C16.3755 14.0583 16.9172 14.5999 17.6005 14.7916C17.9338 14.8833 18.1255 15.2333 18.0338 15.5583C17.9588 15.8333 17.7088 16.0165 17.4338 16.0165Z" fill="white"/>
<path d="M2.8418 18.9583C2.50013 18.9583 2.2168 18.675 2.2168 18.3333C2.2168 14.775 5.70848 11.875 10.0002 11.875C10.9085 11.875 11.8085 12.0083 12.6502 12.2583C12.9835 12.3583 13.1668 12.7083 13.0668 13.0333C12.9668 13.3667 12.6168 13.55 12.2918 13.45C11.5585 13.2333 10.7918 13.1167 10.0002 13.1167C6.40015 13.1167 3.4668 15.45 3.4668 18.325C3.4668 18.675 3.18346 18.9583 2.8418 18.9583Z" fill="white"/>
</svg>
