<svg width="23" height="22" viewBox="0 0 23 22" fill="none" xmlns="http://www.w3.org/2000/svg">
<rect x="0.5" y="0.5" width="22" height="21" rx="3.5" fill="white"/>
<rect x="0.5" y="0.5" width="22" height="21" rx="3.5" stroke="#4B1B97"/>
<path d="M11.1836 15.12C10.5996 15.12 10.0676 15.02 9.58759 14.82C9.10759 14.612 8.70759 14.316 8.38759 13.932L9.46759 12.864C9.62759 13.104 9.85559 13.296 10.1516 13.44C10.4556 13.584 10.7876 13.656 11.1476 13.656C11.4756 13.656 11.7596 13.596 11.9996 13.476C12.2476 13.356 12.4396 13.188 12.5756 12.972C12.7196 12.748 12.7916 12.488 12.7916 12.192C12.7916 11.88 12.7196 11.616 12.5756 11.4C12.4396 11.184 12.2556 11.02 12.0236 10.908C11.7916 10.796 11.5316 10.74 11.2436 10.74C10.9396 10.74 10.6636 10.78 10.4156 10.86C10.1756 10.932 9.94359 11.052 9.71959 11.22L9.81559 10.188C9.96759 10.028 10.1276 9.9 10.2956 9.804C10.4636 9.7 10.6516 9.624 10.8596 9.576C11.0756 9.52 11.3276 9.492 11.6156 9.492C12.2316 9.492 12.7436 9.62 13.1516 9.876C13.5676 10.124 13.8836 10.46 14.0996 10.884C14.3156 11.3 14.4236 11.76 14.4236 12.264C14.4236 12.816 14.2876 13.308 14.0156 13.74C13.7436 14.172 13.3636 14.512 12.8756 14.76C12.3956 15 11.8316 15.12 11.1836 15.12ZM9.71959 11.22L8.93959 10.452L9.32359 6.564H10.7996L10.3676 10.512L9.71959 11.22ZM9.57559 7.98L9.32359 6.564H13.9556V7.98H9.57559Z" fill="#4B1B97"/>
</svg>
