<svg width="16" height="17" viewBox="0 0 16 17" fill="none" xmlns="http://www.w3.org/2000/svg">
<path d="M14.1863 15.3871L14.1864 15.387L14.1942 15.3952C14.3468 15.5563 14.529 15.6357 14.7692 15.6357C14.9926 15.6357 15.1804 15.5589 15.3518 15.3875C15.5232 15.2161 15.6 15.0283 15.6 14.805C15.6 14.5698 15.5225 14.3835 15.3614 14.2224L12.0633 10.9243L11.8272 10.6882L12.0173 10.4137C12.7654 9.33392 13.1385 8.1347 13.1385 6.80495C13.1385 5.94162 12.9712 5.1183 12.6367 4.33169C12.2998 3.5394 11.847 2.86187 11.2797 2.29452C10.7123 1.72718 10.0348 1.27442 9.24249 0.937469C8.45588 0.602934 7.63257 0.43572 6.76923 0.43572C5.9059 0.43572 5.08258 0.602934 4.29597 0.937469C3.50368 1.27442 2.82615 1.72718 2.2588 2.29452C1.69146 2.86187 1.2387 3.5394 0.901748 4.33169C0.567214 5.1183 0.4 5.94162 0.4 6.80495C0.4 7.66829 0.567214 8.49161 0.901748 9.27821C1.2387 10.0705 1.69146 10.748 2.2588 11.3154C2.82615 11.8827 3.50368 12.3355 4.29597 12.6724C5.08258 13.007 5.9059 13.1742 6.76923 13.1742C8.09898 13.1742 9.2982 12.8011 10.378 12.0531L10.6521 11.8632L10.8882 12.0986L14.1863 15.3871ZM10.0953 10.1311L9.8125 9.84822L10.0953 10.1311C9.17782 11.0486 8.06184 11.5126 6.76923 11.5126C5.47662 11.5126 4.36064 11.0486 3.44312 10.1311C2.5256 9.21354 2.06154 8.09756 2.06154 6.80495C2.06154 5.51234 2.5256 4.39636 3.44312 3.47884C4.36064 2.56132 5.47662 2.09726 6.76923 2.09726C8.06184 2.09726 9.17782 2.56132 10.0953 3.47884C11.0129 4.39636 11.4769 5.51234 11.4769 6.80495C11.4769 8.0056 11.2704 8.95605 10.7276 9.49885L10.7251 9.50132L10.7226 9.50378L10.7202 9.50624L10.7177 9.50869L10.7153 9.51114L10.7128 9.51358L10.7104 9.51602L10.708 9.51845L10.7055 9.52088L10.7031 9.52331L10.7007 9.52573L10.6983 9.52814L10.6959 9.53055L10.6935 9.53295L10.6911 9.53535L10.6887 9.53775L10.6863 9.54014L10.6839 9.54252L10.6815 9.5449L10.6791 9.54728L10.6768 9.54965L10.6744 9.55202L10.672 9.55438L10.6697 9.55673L10.6673 9.55908L10.665 9.56143L10.6626 9.56377L10.6603 9.56611L10.658 9.56844L10.6556 9.57077L10.6533 9.57309L10.651 9.57541L10.6487 9.57772L10.6464 9.58003L10.6441 9.58233L10.6418 9.58463L10.6395 9.58692L10.6372 9.58921L10.6349 9.5915L10.6326 9.59378L10.6304 9.59605L10.6281 9.59832L10.6258 9.60058L10.6236 9.60284L10.6213 9.6051L10.6191 9.60735L10.6168 9.60959L10.6146 9.61184L10.6123 9.61407L10.6101 9.6163L10.6079 9.61853L10.6057 9.62075L10.6034 9.62296L10.6012 9.62518L10.599 9.62738L10.5968 9.62959L10.5946 9.63178L10.5924 9.63397L10.5902 9.63616L10.5881 9.63834L10.5859 9.64052L10.5837 9.64269L10.5815 9.64486L10.5794 9.64703L10.5772 9.64918L10.5751 9.65134L10.5729 9.65349L10.5708 9.65563L10.5686 9.65777L10.5665 9.6599L10.5644 9.66203L10.5622 9.66416L10.5601 9.66628L10.558 9.66839L10.5559 9.6705L10.5538 9.67261L10.5517 9.67471L10.5496 9.67681L10.5475 9.6789L10.5454 9.68098L10.5433 9.68306L10.5413 9.68514L10.5392 9.68721L10.5371 9.68928L10.5351 9.69134L10.533 9.6934L10.531 9.69545L10.5289 9.6975L10.5269 9.69954L10.5248 9.70158L10.5228 9.70361L10.5208 9.70564L10.5187 9.70766L10.5167 9.70968L10.5147 9.7117L10.5127 9.71371L10.5107 9.71571L10.5087 9.71771L10.5067 9.7197L10.5047 9.72169L10.5027 9.72368L10.5007 9.72566L10.4988 9.72763L10.4968 9.7296L10.4948 9.73157L10.4929 9.73353L10.4909 9.73549L10.489 9.73744L10.487 9.73938L10.4851 9.74132L10.4831 9.74326L10.4812 9.74519L10.4793 9.74712L10.4774 9.74904L10.4754 9.75096L10.4735 9.75287L10.4716 9.75478L10.4697 9.75668L10.4678 9.75858L10.4659 9.76047L10.464 9.76236L10.4622 9.76424L10.4603 9.76612L10.4584 9.768L10.4565 9.76987L10.4547 9.77173L10.4528 9.77359L10.451 9.77544L10.4491 9.77729L10.4473 9.77914L10.4454 9.78098L10.4436 9.78281L10.4418 9.78465L10.4399 9.78647L10.4381 9.78829L10.4363 9.79011L10.4345 9.79192L10.4327 9.79373L10.4309 9.79553L10.4291 9.79732L10.4273 9.79912L10.4255 9.8009L10.4237 9.80268L10.4219 9.80446L10.4202 9.80623L10.4184 9.808L10.4166 9.80977L10.4149 9.81152L10.4131 9.81328L10.4114 9.81503L10.4096 9.81677L10.4079 9.81851L10.4062 9.82024L10.4044 9.82197L10.4027 9.8237L10.401 9.82541L10.3993 9.82713L10.3976 9.82884L10.3959 9.83054L10.3942 9.83224L10.3925 9.83394L10.3908 9.83563L10.3891 9.83732L10.3874 9.839L10.3857 9.84067L10.3841 9.84234L10.3824 9.84401L10.3807 9.84567L10.3791 9.84733L10.3774 9.84898L10.3758 9.85063L10.3741 9.85227L10.3725 9.85391L10.3709 9.85554L10.3692 9.85717L10.3676 9.85879L10.366 9.86041L10.3644 9.86202L10.3628 9.86363L10.3612 9.86524L10.3596 9.86684L10.358 9.86843L10.3564 9.87002L10.3548 9.8716L10.3532 9.87318L10.3516 9.87476L10.3501 9.87633L10.3485 9.87789L10.347 9.87945L10.3454 9.88101L10.3438 9.88256L10.3423 9.88411L10.3408 9.88565L10.3392 9.88718L10.3377 9.88871L10.3362 9.89024L10.3346 9.89176L10.3331 9.89328L10.3316 9.89479L10.3301 9.8963L10.3286 9.8978L10.3271 9.8993L10.3256 9.90079L10.3241 9.90228L10.3226 9.90376L10.3212 9.90524L10.3197 9.90672L10.3182 9.90818L10.3168 9.90965L10.3153 9.91111L10.3138 9.91256L10.3124 9.91401L10.311 9.91546L10.3095 9.9169L10.3081 9.91833L10.3066 9.91976L10.3052 9.92119L10.3038 9.92261L10.3024 9.92402L10.301 9.92543L10.2996 9.92684L10.2982 9.92824L10.2968 9.92964L10.2954 9.93103L10.294 9.93241L10.2926 9.9338L10.2912 9.93517L10.2899 9.93655L10.2885 9.93791L10.2871 9.93928L10.2858 9.94063L10.2844 9.94199L10.2831 9.94333L10.2817 9.94468L10.2804 9.94602L10.2791 9.94735L10.2777 9.94868L10.2764 9.95L10.2751 9.95132L10.2738 9.95264L10.2725 9.95395L10.2712 9.95525L10.2699 9.95655L10.2686 9.95785L10.2673 9.95914L10.266 9.96042L10.2647 9.9617L10.2634 9.96298L10.2622 9.96425L10.2609 9.96552L10.2596 9.96678L10.2584 9.96803L10.2571 9.96928L10.2559 9.97053L10.2546 9.97177L10.2534 9.97301L10.2522 9.97424L10.2509 9.97547L10.2497 9.97669L10.2485 9.97791L10.2473 9.97912L10.2461 9.98033L10.2449 9.98154L10.2437 9.98273L10.2425 9.98393L10.2413 9.98512L10.2401 9.9863L10.2389 9.98748L10.2378 9.98866L10.2366 9.98982L10.2354 9.99099L10.2343 9.99215L10.2331 9.99331L10.232 9.99446L10.2308 9.9956L10.2297 9.99674L10.2285 9.99788L10.2274 9.99901L10.2263 10.0001L10.2252 10.0013L10.224 10.0024L10.2229 10.0035L10.2218 10.0046L10.2207 10.0057L10.2196 10.0068L10.2185 10.0079L10.2174 10.009L10.2164 10.0101L10.2153 10.0111L10.2142 10.0122L10.2131 10.0133L10.2121 10.0143L10.211 10.0154L10.21 10.0164L10.2089 10.0175L10.2079 10.0185L10.2068 10.0196L10.2058 10.0206L10.2048 10.0216L10.2037 10.0227L10.2027 10.0237L10.2017 10.0247L10.2007 10.0257L10.1997 10.0267L10.1987 10.0277L10.1977 10.0287L10.1967 10.0297L10.1957 10.0307L10.1947 10.0317L10.1937 10.0327L10.1928 10.0336L10.1918 10.0346L10.1908 10.0356L10.1899 10.0365L10.1889 10.0375L10.188 10.0384L10.187 10.0394L10.1861 10.0403L10.1852 10.0412L10.1842 10.0422L10.1833 10.0431L10.1824 10.044L10.1815 10.0449L10.1806 10.0458L10.1797 10.0467L10.1788 10.0476L10.1779 10.0485L10.177 10.0494L10.1761 10.0503L10.1752 10.0512L10.1744 10.0521L10.1735 10.0529L10.1726 10.0538L10.1718 10.0547L10.1709 10.0555L10.17 10.0564L10.1692 10.0572L10.1684 10.058L10.1675 10.0589L10.1667 10.0597L10.1659 10.0605L10.165 10.0614L10.1642 10.0622L10.1634 10.063L10.1626 10.0638L10.1618 10.0646L10.161 10.0654L10.1602 10.0662L10.1594 10.067L10.1586 10.0678L10.1579 10.0686L10.1571 10.0693L10.1563 10.0701L10.1555 10.0709L10.1548 10.0716L10.154 10.0724L10.1533 10.0731L10.1525 10.0739L10.1518 10.0746L10.1511 10.0753L10.1503 10.0761L10.1496 10.0768L10.1489 10.0775L10.1482 10.0782L10.1475 10.0789L10.1468 10.0797L10.146 10.0804L10.1454 10.0811L10.1447 10.0817L10.144 10.0824L10.1433 10.0831L10.1426 10.0838L10.1419 10.0845L10.1413 10.0851L10.1406 10.0858L10.1399 10.0865L10.1393 10.0871L10.1386 10.0878L10.138 10.0884L10.1374 10.089L10.1367 10.0897L10.1361 10.0903L10.1355 10.0909L10.1349 10.0916L10.1342 10.0922L10.1336 10.0928L10.133 10.0934L10.1324 10.094L10.1318 10.0946L10.1312 10.0952L10.1307 10.0958L10.1301 10.0963L10.1295 10.0969L10.1289 10.0975L10.1284 10.098L10.1278 10.0986L10.1272 10.0992L10.1267 10.0997L10.1261 10.1003L10.1256 10.1008L10.1251 10.1013L10.1245 10.1019L10.124 10.1024L10.1235 10.1029L10.123 10.1035L10.1224 10.104L10.1219 10.1045L10.1214 10.105L10.1209 10.1055L10.1204 10.106L10.1199 10.1065L10.1195 10.1069L10.119 10.1074L10.1185 10.1079L10.118 10.1084L10.1176 10.1088L10.1171 10.1093L10.1167 10.1098L10.1162 10.1102L10.1158 10.1107L10.1153 10.1111L10.1149 10.1115L10.1144 10.112L10.114 10.1124L10.1136 10.1128L10.1132 10.1132L10.1128 10.1136L10.1124 10.114L10.112 10.1144L10.1116 10.1148L10.1112 10.1152L10.1108 10.1156L10.1104 10.116L10.11 10.1164L10.1096 10.1168L10.1093 10.1171L10.1089 10.1175L10.1085 10.1179L10.1082 10.1182L10.1078 10.1186L10.1075 10.1189L10.1072 10.1192L10.1068 10.1196L10.1065 10.1199L10.1062 10.1202L10.1058 10.1206L10.1055 10.1209L10.1052 10.1212L10.1049 10.1215L10.1046 10.1218L10.1043 10.1221L10.104 10.1224L10.1037 10.1227L10.1035 10.123L10.1032 10.1232L10.1029 10.1235L10.1026 10.1238L10.1024 10.124L10.1021 10.1243L10.1019 10.1245L10.1016 10.1248L10.1014 10.125L10.1011 10.1253L10.1009 10.1255L10.1007 10.1257L10.1004 10.126L10.1002 10.1262L10.1 10.1264L10.0998 10.1266L10.0996 10.1268L10.0994 10.127L10.0992 10.1272L10.099 10.1274L10.0988 10.1276L10.0986 10.1278L10.0985 10.1279L10.0983 10.1281L10.0981 10.1283L10.098 10.1284L10.0978 10.1286L10.0977 10.1287L10.0975 10.1289L10.0974 10.129L10.0972 10.1292L10.0971 10.1293L10.097 10.1294L10.0969 10.1296L10.0967 10.1297L10.0966 10.1298L10.0965 10.1299L10.0964 10.13L10.0963 10.1301L10.0962 10.1302L10.0961 10.1303L10.096 10.1304L10.096 10.1304L10.0959 10.1305L10.0958 10.1306L10.0957 10.1307L10.0957 10.1307L10.0956 10.1308L10.0956 10.1308L10.0955 10.1309L10.0955 10.1309L10.0955 10.1309L10.0954 10.131L10.0954 10.131L10.0954 10.131L10.0954 10.131L10.0954 10.1311L10.0953 10.1311Z" stroke="white" stroke-width="0.8"/>
</svg>
