<svg width="18" height="16" viewBox="0 0 18 16" fill="none" xmlns="http://www.w3.org/2000/svg">
<path d="M3.91617 3.50791C3.91422 3.50681 3.91245 3.50575 3.91085 3.50474L3.91095 3.5042C4.13722 2.31228 4.77902 1.55058 5.60535 1.07583C6.44573 0.593015 7.49264 0.4 8.50757 0.4C9.54591 0.4 10.7245 0.67685 11.4802 1.40549C12.3825 2.281 12.4017 3.42544 12.4017 4.94037V8.53597C12.4017 9.5371 12.8297 10.0611 13.1816 10.4919C13.2504 10.5761 13.3163 10.6568 13.3755 10.7368C13.3987 10.7776 13.4081 10.8119 13.4107 10.833C12.9362 11.2313 12.1502 11.9005 11.7194 12.2869C11.7049 12.2996 11.689 12.311 11.6738 12.3196C11.6721 12.3206 11.6704 12.3215 11.6688 12.3223C11.1864 11.9384 10.9833 11.637 10.693 11.2062C10.6333 11.1176 10.5699 11.0235 10.4996 10.9221L10.2235 10.5236L9.88471 10.8704C9.28837 11.4808 8.80754 11.853 8.30568 12.0787C7.80766 12.3027 7.25669 12.3968 6.4967 12.3968C5.63401 12.3968 4.9023 12.1289 4.38833 11.6298C3.87712 11.1334 3.54014 10.3683 3.54014 9.2917C3.54014 7.65088 4.41589 6.54865 5.67284 6.00246C6.64542 5.58267 7.84303 5.45543 8.99855 5.33266C9.21523 5.30964 9.43044 5.28677 9.6424 5.26217L9.99627 5.22108V4.86483C9.99627 4.81691 9.9965 4.76693 9.99674 4.71521C9.99896 4.23885 10.0019 3.6151 9.83037 3.10087C9.73106 2.80303 9.56514 2.5116 9.28445 2.29703C9.00124 2.08053 8.63998 1.9719 8.20524 1.9719C7.21081 1.9719 6.24669 2.49261 6.01535 3.63072C6.00982 3.65312 6.00159 3.67738 5.99102 3.70071C5.98301 3.71841 5.97466 3.73335 5.96682 3.74531L3.94043 3.51873C3.93201 3.51582 3.92368 3.51214 3.91617 3.50791ZM5.94423 3.77331C5.94422 3.77326 5.94477 3.77274 5.94589 3.7719C5.94479 3.77295 5.94423 3.77336 5.94423 3.77331ZM9.99624 6.6325V6.2325H9.59624C8.76847 6.2325 7.88432 6.33409 7.19607 6.72711C6.84473 6.92774 6.54158 7.20598 6.32865 7.58321C6.11624 7.95952 6.00604 8.41226 6.00604 8.94403C6.00604 9.49481 6.15237 9.9948 6.46226 10.3645C6.77889 10.7422 7.23515 10.9457 7.7666 10.9457C8.67696 10.9457 9.1878 10.3013 9.52132 9.70024C9.80919 9.20203 9.92412 8.66766 9.9703 8.14872C10.0055 7.75348 10.0017 7.34365 9.99826 6.9606C9.99724 6.8486 9.99624 6.73889 9.99624 6.6325Z" stroke="white" stroke-width="0.8"/>
<path d="M8.50778 15.6C6.29482 15.6 4.23432 15.0277 2.45986 14.0188C4.38609 14.7494 6.5194 15.1607 8.70438 15.1607C10.3762 15.1607 12.1806 14.8924 13.9228 14.3398C12.282 15.1659 10.2906 15.6 8.50778 15.6ZM16.5192 12.762C16.4569 12.6815 16.3807 12.6248 16.3074 12.5842C16.382 12.5934 16.4505 12.6046 16.5117 12.6172C16.5745 12.6302 16.6258 12.6438 16.6654 12.6565C16.6673 12.6948 16.6673 12.7432 16.664 12.8019C16.6603 12.8673 16.6528 12.9406 16.6411 13.0202C16.6209 12.9369 16.5848 12.8453 16.5192 12.762ZM16.7444 12.688C16.7444 12.688 16.7439 12.6878 16.7431 12.6872L16.7444 12.688ZM16.6562 12.5761C16.6554 12.5738 16.6551 12.5725 16.6551 12.5725C16.6551 12.5724 16.6555 12.5736 16.6562 12.5761Z" stroke="white" stroke-width="0.8"/>
</svg>
