<svg width="16" height="16" viewBox="0 0 16 16" fill="none" xmlns="http://www.w3.org/2000/svg">
<path d="M15.9732 9.75633L15.9756 9.75553L13.3487 4.02385L13.9857 3.70679L13.7473 3.22946L13.1263 3.53879L13.0423 3.35559C12.9809 3.22173 12.8226 3.16296 12.6887 3.22433C12.6307 3.25096 12.5841 3.29752 12.5575 3.35559L12.4825 3.51932C12.0306 3.30939 11.5383 3.20046 11.0399 3.20013H8.79992V2.6668H9.33325V2.13347H8.87485L9.06658 1.36628C9.21378 0.777183 8.85558 0.180288 8.26649 0.0330566C7.67739 -0.114142 7.0805 0.244055 6.93327 0.833149C6.88954 1.00815 6.88954 1.19125 6.93327 1.36624L7.125 2.13344H6.6666V2.66676H7.19993V3.20009H4.96129C4.46243 3.20049 3.96963 3.30969 3.5173 3.52009L3.44237 3.35636C3.381 3.22249 3.22271 3.16373 3.08884 3.22509C3.03077 3.25173 2.98421 3.29829 2.95757 3.35636L2.87358 3.53956L2.25252 3.22889L2.01412 3.70675L2.65118 4.02515L0.02427 9.75553C0.00807013 9.79036 -0.000196454 9.82833 3.54415e-06 9.86673C0.0011702 10.8972 0.836229 11.7322 1.86665 11.7334H4.53329C5.56372 11.7322 6.39877 10.8972 6.39994 9.86673C6.39927 9.82843 6.39017 9.79073 6.37327 9.75633L3.73917 4.00305C4.12206 3.82532 4.53916 3.73332 4.96129 3.73345H7.19993V13.4896L6.28954 14.4H5.33328C4.59729 14.4009 4.00083 14.9973 3.99996 15.7333C3.99996 15.8806 4.11936 16 4.26663 16H11.7332C11.8805 16 11.9999 15.8806 11.9999 15.7333C11.999 14.9973 11.4026 14.4009 10.6666 14.4H9.71031L8.79992 13.4896V3.73345H11.0399C11.462 3.73332 11.8791 3.82532 12.262 4.00305L9.62418 9.75553C9.60798 9.79036 9.59971 9.82833 9.59991 9.86673C9.60108 10.8972 10.4361 11.7322 11.4666 11.7334H14.1332C15.1636 11.7322 15.9987 10.8972 15.9998 9.86673C15.9992 9.82843 15.9901 9.79073 15.9732 9.75633ZM4.53329 11.2H1.86665C1.23326 11.1993 0.687497 10.7538 0.559998 10.1334H5.83995C5.71248 10.7538 5.16669 11.1993 4.53329 11.2ZM5.71781 9.60006H0.68213L3.13171 4.25585C3.17644 4.26785 3.22351 4.26785 3.26824 4.25585L5.71781 9.60006ZM7.5538 0.751083C7.76146 0.504685 8.12956 0.473319 8.37596 0.680984C8.40125 0.702317 8.42472 0.725783 8.44605 0.751083C8.55392 0.888282 8.59202 1.06775 8.54925 1.23694L8.32499 2.13347H7.67486L7.4506 1.23694C7.40783 1.06775 7.44596 0.888282 7.5538 0.751083ZM7.73326 3.20013V2.6668H8.26659V3.20013H7.73326ZM8.26659 3.73345V13.3334H7.73326V3.73345H8.26659ZM10.6666 14.9333C11.0055 14.9337 11.3075 15.1473 11.421 15.4667H4.57889C4.69232 15.1473 4.99435 14.9337 5.33328 14.9333H10.6666ZM8.95618 14.4H7.04367L7.577 13.8667H8.42285L8.95618 14.4ZM12.7311 4.25665C12.7751 4.27215 12.8234 4.27015 12.866 4.25105L15.3177 9.60006H10.282L12.7311 4.25665ZM14.1332 11.2H11.4666C10.8332 11.1993 10.2874 10.7538 10.1599 10.1334H15.4399C15.3124 10.7538 14.7666 11.1993 14.1332 11.2Z" fill="white"/>
</svg>
