<svg width="14" height="12" viewBox="0 0 14 12" fill="none" xmlns="http://www.w3.org/2000/svg">
<path d="M12.3428 8.35711V1.92854C12.3428 1.8705 12.3216 1.82028 12.2792 1.77787C12.2367 1.73546 12.1865 1.71425 12.1285 1.71425H1.4142C1.35617 1.71425 1.30594 1.73546 1.26353 1.77787C1.22112 1.82028 1.19992 1.8705 1.19992 1.92854V8.35711C1.19992 8.41514 1.22112 8.46537 1.26353 8.50778C1.30594 8.55019 1.35617 8.57139 1.4142 8.57139H12.1285C12.1865 8.57139 12.2367 8.55019 12.2792 8.50778C12.3216 8.46537 12.3428 8.41514 12.3428 8.35711ZM13.1999 1.92854V8.35711C13.1999 8.65175 13.095 8.90398 12.8852 9.1138C12.6754 9.32363 12.4231 9.42854 12.1285 9.42854H7.19992V10.2857H9.55706C9.61956 10.2857 9.6709 10.3058 9.71108 10.3459C9.75126 10.3861 9.77135 10.4375 9.77135 10.5V10.9285C9.77135 10.991 9.75126 11.0424 9.71108 11.0826C9.6709 11.1227 9.61956 11.1428 9.55706 11.1428H3.98563C3.92313 11.1428 3.87179 11.1227 3.83161 11.0826C3.79143 11.0424 3.77134 10.991 3.77134 10.9285V10.5C3.77134 10.4375 3.79143 10.3861 3.83161 10.3459C3.87179 10.3058 3.92313 10.2857 3.98563 10.2857H6.34277V9.42854H1.4142C1.11956 9.42854 0.867327 9.32363 0.657506 9.1138C0.447684 8.90398 0.342773 8.65175 0.342773 8.35711V1.92854C0.342773 1.63389 0.447684 1.38166 0.657506 1.17184C0.867327 0.962019 1.11956 0.857108 1.4142 0.857108H12.1285C12.4231 0.857108 12.6754 0.962019 12.8852 1.17184C13.095 1.38166 13.1999 1.63389 13.1999 1.92854Z" fill="#484848"/>
</svg>
